<svg width="462" height="441" viewBox="0 0 462 441" fill="none" xmlns="http://www.w3.org/2000/svg">
<rect x="32.323" y="160.875" width="441.163" height="139.759" transform="rotate(13.3722 32.323 160.875)" fill="#F34F29"/>
<path d="M51 358.875V342.703H58.5V300.422H51V284.25H87.9844V300.422H82.3125V317.953L100.688 300.422H95.0156V284.25H125.859V300.422H119.531L100.969 317.531H102.75C108.438 317.531 112.672 318.922 115.453 321.703C118.234 324.453 119.688 328.5 119.812 333.844L119.906 337.734C119.969 339.391 120.328 340.641 120.984 341.484C121.672 342.297 122.828 342.703 124.453 342.703H129.422V358.875H113.109C107.141 358.875 102.719 357.5 99.8438 354.75C97 351.969 95.5469 347.906 95.4844 342.562L95.3906 336.328C95.2969 331.328 92.9844 328.828 88.4531 328.828H82.3125V342.703H88.6406V358.875H51ZM149.859 359.719C146.641 359.719 143.766 359.078 141.234 357.797C138.734 356.484 136.766 354.688 135.328 352.406C133.922 350.125 133.219 347.5 133.219 344.531C133.219 339.906 135 336.219 138.562 333.469C142.125 330.719 146.875 329.344 152.812 329.344C154.875 329.344 156.844 329.469 158.719 329.719C160.594 329.969 162.5 330.391 164.438 330.984V329.953C164.438 327.109 163.562 325.047 161.812 323.766C160.094 322.484 157.328 321.844 153.516 321.844C150.766 321.844 147.984 322.203 145.172 322.922C142.359 323.641 139.797 324.641 137.484 325.922L136.219 325.359V311.672C139.5 310.391 143.219 309.422 147.375 308.766C151.562 308.109 155.766 307.781 159.984 307.781C169.328 307.781 176.156 309.344 180.469 312.469C184.781 315.594 186.938 320.609 186.938 327.516V344.812H193.031V358.875H167.438L165.141 351.516C163.672 354.078 161.578 356.094 158.859 357.562C156.172 359 153.172 359.719 149.859 359.719ZM159.656 347.719C160.5 347.719 161.375 347.578 162.281 347.297C163.219 346.984 163.938 346.578 164.438 346.078V338.25C163.656 337.906 162.859 337.672 162.047 337.547C161.266 337.422 160.531 337.359 159.844 337.359C158.25 337.359 156.906 337.828 155.812 338.766C154.75 339.703 154.219 340.953 154.219 342.516C154.219 344.109 154.719 345.375 155.719 346.312C156.719 347.25 158.031 347.719 159.656 347.719ZM199.266 358.875V344.812H206.062V323.297H199.266V310.5L228.094 307.734V313.875C230.031 311.906 232.438 310.391 235.312 309.328C238.188 308.266 241.25 307.734 244.5 307.734C251.062 307.734 255.625 310.016 258.188 314.578C260.594 312.391 263.328 310.703 266.391 309.516C269.484 308.328 272.578 307.734 275.672 307.734C281.672 307.734 286.016 309.312 288.703 312.469C291.422 315.625 292.781 320.406 292.781 326.812V344.812H299.344V358.875H270.281V326.812C270.281 325.062 269.891 323.797 269.109 323.016C268.359 322.203 267.406 321.797 266.25 321.797C265.312 321.797 264.328 322.078 263.297 322.641C262.266 323.203 261.391 324.016 260.672 325.078V344.812H264.891V358.875H238.172V326.812C238.172 325.062 237.781 323.797 237 323.016C236.25 322.203 235.297 321.797 234.141 321.797C233.203 321.797 232.219 322.078 231.188 322.641C230.156 323.203 229.281 324.016 228.562 325.078V344.812H232.781V358.875H199.266ZM333.797 359.719C324.516 359.719 317.234 357.391 311.953 352.734C306.703 348.047 304.078 341.562 304.078 333.281C304.078 328.062 305.219 323.547 307.5 319.734C309.812 315.922 313.031 312.984 317.156 310.922C321.281 308.828 326.078 307.781 331.547 307.781C336.891 307.781 341.469 308.766 345.281 310.734C349.094 312.672 352 315.391 354 318.891C356.031 322.359 357.047 326.375 357.047 330.938C357.047 332 357 333.031 356.906 334.031C356.812 335 356.703 335.891 356.578 336.703H326.438C326.969 339.891 328.406 342.188 330.75 343.594C333.125 344.969 336.016 345.656 339.422 345.656C342.297 345.656 345.031 345.156 347.625 344.156C350.25 343.125 352.469 341.844 354.281 340.312L355.547 340.875V354.328C354.047 355.359 352.109 356.281 349.734 357.094C347.359 357.906 344.781 358.547 342 359.016C339.25 359.484 336.516 359.719 333.797 359.719ZM332.766 319.312C330.672 319.312 329.094 320.125 328.031 321.75C326.969 323.375 326.375 325.641 326.25 328.547H339.281C339.156 325.641 338.562 323.375 337.5 321.75C336.469 320.125 334.891 319.312 332.766 319.312ZM361.031 358.875V344.812H368.297V301.594H361.031V288.797L390.797 285.75V344.812H398.062V358.875H361.031Z" fill="black"/>
<path d="M15.3787 259.051C23.0321 257.681 33.977 255.91 47.4194 253.838C37.6211 256.148 26.9559 257.923 15.3787 259.051Z" fill="black"/>
<path d="M56.4273 167.76C152.853 58.9661 199.724 241.094 15.3787 259.051C86.7521 246.277 444.379 198.551 444.379 198.551M271.379 69.5511L315.379 261.051" stroke="black" stroke-width="6" stroke-linecap="round"/>
<path d="M322.781 270.666C320.536 270.716 318.47 271.367 316.388 272.186C315.128 272.681 314.067 273.291 313.123 274.272C312.62 274.794 312.025 275.411 312.025 276.183C312.025 277.223 313.077 278.335 314.081 278.547C316.18 278.99 318.612 278.652 320.676 278.232C325.803 277.188 330.846 275.123 335.706 273.238C338.481 272.162 341.166 270.905 343.902 269.739C345.247 269.166 346.683 268.456 348.114 268.106C348.378 268.042 348.916 267.958 348.499 268.346C347.242 269.515 345.523 270.059 343.953 270.641C331.752 275.16 319.563 279.846 308.041 285.936C305.729 287.158 303.525 288.532 301.541 290.242C301.216 290.522 300.959 290.694 300.879 291.093" stroke="black" stroke-width="6" stroke-linecap="round"/>
<path d="M98.8787 195.051C110.377 207.47 118.829 222.228 129.545 235.273C133.132 239.64 137.327 242.949 139.879 248.051" stroke="black" stroke-width="6" stroke-linecap="round"/>
<path d="M42.266 199.314C41.0324 199.16 40.871 197.268 41.4882 196.314C43.0536 193.895 52.2911 195.224 54.5437 195.37C57.9859 195.592 58.266 196.799 58.266 199.814C58.266 205.479 54.1314 207.782 50.0437 210.759C47.2692 212.779 31.4477 223.423 39.0437 227.981C43.2832 230.524 47.0388 233.811 51.0437 236.703C53.0075 238.121 52.266 241.157 52.266 243.314" stroke="black" stroke-width="6" stroke-linecap="round"/>
</svg>
